<?xml version="1.0" encoding="utf-8"?>
<!-- Generator: Adobe Illustrator 19.2.1, SVG Export Plug-In . SVG Version: 6.00 Build 0)  -->
<svg version="1.1" id="layer" xmlns="http://www.w3.org/2000/svg" xmlns:xlink="http://www.w3.org/1999/xlink" x="0px" y="0px"
	 viewBox="0 0 652 652" style="enable-background:new 0 0 652 652;" xml:space="preserve">
<g>
	<path d="M47.6,295.5c-10,0-18.5,4.1-23.4,6.4l3.1,11.3c5-1.9,11.8-4.3,17.5-4.3c5.1,0,7,2.6,7,7v1.8h-8.2
		c-12.2,0-23.3,4.2-23.3,18.6c0,12.1,8.3,16.3,16.8,16.3c7.1,0,11.9-3.4,14.7-6.1v4.9h15.7v-36.7C67.5,302.7,61.9,295.5,47.6,295.5
		 M51.8,336.4c-2.2,1.5-5.6,4-9.2,4c-3.7,0-5.9-2.1-5.9-6.2c0-4.8,3.2-7.2,9-7.2h6.2V336.4z"/>
</g>
<g>
	<path d="M91.6,304.3v-7.7H75.8v54.8h15.7V318c3-4.2,9.7-7.8,15.8-7.8v-14.7C98.9,295.5,94.6,299.1,91.6,304.3"/>
	<path d="M135.2,308.9c6.1,0,10.5,2.8,13.1,4.3l4.8-11c-2.9-2.2-9.1-6.8-19.3-6.8c-12.6,0-25.6,6.5-25.6,29.1
		c0,21.7,12.5,28,24.9,28c10.4,0,16.1-4.3,20-7.6l-5.8-11c-3,2.1-7.3,5.1-12.8,5.1c-5.5,0-10-4.1-10-14.9
		C124.3,313.2,129.3,308.9,135.2,308.9"/>
	<path d="M210.9,296.7v43.1h-9.5l0-27.7c0-11.2-6.1-16.5-14.6-16.5c-8.4,0-13.3,5-15.8,7.5v-32.7h-15.7v81.2h15.7V314
		c1.6-1,5.8-3.4,9.2-3.4c3.8,0,5.5,2.2,5.5,5.8l0,35.6h41v-55.4H210.9z"/>
	<rect x="210.9" y="273.7" width="15.7" height="15.7"/>
	<path d="M266.2,295.5c-7.8,0-11.2,2.8-13.9,5.2v-4.1h-15.7v78.1h15.7v-26.2c2.6,1.8,6.6,4.1,13.6,4.1c11,0,20.3-6.5,20.3-29.4
		C286.2,302.5,276.5,295.5,266.2,295.5 M261.7,339.8c-3.5,0-6.8-1.3-9.4-3v-24.6c2-1.6,4.9-3.8,8.7-3.8c4.4,0,8.9,1.8,8.9,14.8
		C269.9,337.1,266.3,339.8,261.7,339.8"/>
	<path d="M306.3,304.3v-7.7h-15.7v54.8h15.7V318c3-4.2,9.7-7.8,15.8-7.8v-14.7C313.7,295.5,309.4,299.1,306.3,304.3"/>
	<path d="M350.3,295.5c-15.3,0-26.9,9-26.9,28.6c0,19.6,11.9,28.5,26.9,28.5c14.8,0,26.9-9,26.9-28.5
		C377.2,304.5,365,295.5,350.3,295.5 M350.3,340c-6.6,0-10.6-4.5-10.6-16c0-12,4.1-16.1,10.6-16.1c6.8,0,10.6,4.3,10.6,16.1
		C360.9,336,356.8,340,350.3,340"/>
	<path d="M414.5,299.8c-1.9-1.8-5.4-4.3-12.5-4.3c-9.4,0-21.4,6.2-21.4,28.3c0,21.8,9.2,28.8,20.2,28.8c7.3,0,11.7-3.7,13.8-5.8v4.7
		h15.7v-81.2h-15.7V299.8z M414.5,335.3c-2.2,1.9-5.1,4.4-9.6,4.4c-4.8,0-8-3-8-16.1c0-11.9,3.8-15.4,9.3-15.4c4.1,0,7,2.2,8.3,3.2
		V335.3z"/>
	<path d="M467,334.1c-2.3,2-6.1,4.5-9.8,4.5c-3.8,0-4.9-2.6-4.9-6.2v-35.8h-15.7v39.4c0,11.2,5.6,16.5,14.3,16.5
		c8.5,0,13.5-5,16.1-7.5v6.3h15.7v-54.8H467V334.1z"/>
	<path d="M514,308.9c6.1,0,10.5,2.8,13,4.3l4.8-11c-2.9-2.2-9.1-6.8-19.3-6.8c-12.6,0-25.6,6.5-25.6,29.1c0,21.7,12.5,28,24.9,28
		c10.4,0,16.1-4.3,20-7.6l-5.8-11c-3,2.1-7.3,5.1-12.8,5.1c-5.5,0-10-4.1-10-14.9C503.2,313.2,508.2,308.9,514,308.9"/>
	<path d="M598.8,317.5l-3.7-1c-3.5-0.9-6.1-1.8-6.1-4.4c0-2.7,2.3-3.6,5.1-3.6c4.7,0,9.7,2.1,13.6,3.7l3.8-11.4
		c-3.1-1.6-9.2-5.2-18.2-5.2c-3,0-6,0.3-8.7,1.2h-22.1v0H557v-15.1l-15.7,3.5v11.7h-5.8v12.2h5.8v29.7c0,8.7,4.1,14,12.7,14
		c6.4,0,10.7-2.3,13.5-4.1l-3.3-11c-1.5,0.6-2.9,1.3-4.5,1.3c-1.8,0-2.7-1.1-2.7-3.5v-26.4h5.4h0.2h10.8c-0.3,1.4-0.4,3-0.4,4.8
		c0,11.4,8.3,14.8,14.3,16.5l3.3,0.9c3.7,1,6.3,2.1,6.3,4.8c0,2.5-1.5,3.7-5.5,3.7c-4.4,0-10.4-2.5-15-4.8l-4.4,11.4
		c3.7,2.3,11.4,6.3,20.9,6.3c11.8,0,20.2-4.3,20.2-17.8C612.9,322.9,605.3,319.4,598.8,317.5"/>
	<path d="M615.5,285.7c0-1.5-1.2-2.6-2.8-2.6h-3v8.8h1.2v-3.6h1.3l2,3.6h1.4l-2.1-3.7C614.7,287.8,615.5,287,615.5,285.7
		 M610.9,287.3v-3.1h1.6c1,0,1.7,0.7,1.7,1.5c0,0.9-0.7,1.5-1.7,1.5H610.9z"/>
	<path d="M612.3,279.5c-4.4,0-8,3.6-8,8c0,4.4,3.6,8,8,8c4.4,0,8-3.6,8-8C620.3,283.1,616.7,279.5,612.3,279.5 M612.3,294.3
		c-3.7,0-6.7-3.1-6.7-6.8c0-3.8,3-6.8,6.7-6.8c3.7,0,6.7,3.1,6.7,6.8C619.1,291.3,616,294.3,612.3,294.3"/>
</g>
</svg>
